{"title":"Backroom Casting Couch - Afton","uid":10806595,"size":254367654,"categoryP":"porn","categoryS":"movie_clips","magnet":"?xt=urn:btih:320382d067548bdd01bec8701de9f0e6ade510cb&amp;dn=Backroom+Casting+Couch+-+Afton&amp;tr=udp%3A%2F%2Ftracker.openbittorrent.com%3A80&amp;tr=udp%3A%2F%2Fopen.demonii.com%3A1337&amp;tr=udp%3A%2F%2Ftracker.coppersurfer.tk%3A6969&amp;tr=udp%3A%2F%2Fexodus.desync.com%3A6969","seeders":3,"leechers":1,"uploader":"ThousandPeers","files":-1,"time":1408388135,"description":"Format                                   : MPEG-4\nFormat profile                           : Base Media\nCodec ID                                 : isom\nFile size                                : 242 MiB\nDuration                                 : 34mn 9s\nOverall bit rate mode                    : Variable\nOverall bit rate                         : 992 Kbps\nMovie name                               : Downloaded from RARBG.COM\nWriting application                      : Lavf53.21.1\nComment                                  : Downloaded from RARBG.COM\n\nVideo\nID                                       : 1\nFormat                                   : AVC\nFormat/Info                              : Advanced Video Codec\nFormat profile                           : &lt;a class=&quot;__cf_email__&quot; href=&quot;/cdn-cgi/l/email-protection&quot; data-cfemail=&quot;8cc1ede5e2ccc0bfa2bc&quot;&gt;[email&amp;#160;protected]&lt;/a&gt;&lt;script cf-hash='f9e31' type=&quot;text/javascript&quot;&gt;\n/* &lt;![CDATA[ */!function(){try{var t=&quot;currentScript&quot;in document?document.currentScript:function(){for(var t=document.getElementsByTagName(&quot;script&quot;),e=t.length;e--;)if(t[e].getAttribute(&quot;cf-hash&quot;))return t[e]}();if(t&amp;&amp;t.previousSibling){var e,r,n,i,c=t.previousSibling,a=c.getAttribute(&quot;data-cfemail&quot;);if(a){for(e=&quot;&quot;,r=parseInt(a.substr(0,2),16),n=2;a.length-n;n+=2)i=parseInt(a.substr(n,2),16)^r,e+=String.fromCharCode(i);e=document.createTextNode(e),c.parentNode.replaceChild(e,c)}}}catch(u){}}();/* ]]&gt; */&lt;/script&gt;\nFormat settings, CABAC                   : Yes\nFormat settings, ReFrames                : 5 frames\nCodec ID                                 : avc1\nCodec ID/Info                            : Advanced Video Coding\nDuration                                 : 34mn 9s\nBit rate                                 : 801 Kbps\nWidth                                    : 722 pixels\nHeight                                   : 406 pixels\nDisplay aspect ratio                     : 16:9\nFrame rate mode                          : Constant\nFrame rate                               : 29.970 fps\nColor space                              : YUV\nChroma subsampling                       : 4:2:0\nBit depth                                : 8 bits\nScan type                                : Progressive\nBits/(Pixel*Frame)                       : 0.091\nStream size                              : 196 MiB (81%)\n           : English\n\nAudio\nID                                       : 2\nFormat                                   : AAC\nFormat/Info                              : Advanced Audio Codec\nFormat profile                           : LC\nCodec ID                                 : 40\nDuration                                 : 34mn 9s\nBit rate mode                            : Variable\nBit rate                                 : 185 Kbps\nChannel(s)                               : 2 channels\nChannel positions                        : Front: L R\nSampling rate                            : 48.0 KHz\nCompression mode                         : Lossy\nDelay relative to video                  : 33ms\nStream size                              : 45.2 MiB (19%)\nLanguage                                 : English\n","torrent":{"xt":"urn:btih:320382d067548bdd01bec8701de9f0e6ade510cb","amp;dn":"Backroom+Casting+Couch+-+Afton","amp;tr":["udp%3A%2F%2Ftracker.openbittorrent.com%3A80","udp%3A%2F%2Fopen.demonii.com%3A1337","udp%3A%2F%2Ftracker.coppersurfer.tk%3A6969","udp%3A%2F%2Fexodus.desync.com%3A6969"],"infoHash":"320382d067548bdd01bec8701de9f0e6ade510cb","infoHashBuffer":{"type":"Buffer","data":[50,3,130,208,103,84,139,221,1,190,200,112,29,233,240,230,173,229,16,203]},"announce":[],"urlList":[]}}